<?xml version="1.0" encoding="UTF-8"?> <svg xmlns="http://www.w3.org/2000/svg" height="752" viewBox="0 0 813.15 752" width="813.15"><path d="m559.73 403.7-211.87-51.03v399.33l211.87-55.46z" fill="#e0e0e0"></path><path d="m559.73 403.7-211.87-51.03v399.33l211.87-55.46z" opacity=".1"></path><path d="m135.99 403.7 211.87-51.03v399.33l-211.87-54.35z" fill="#e0e0e0"></path><path d="m135.99 401.93 211.87-51.02v401.09l-211.87-54.35z" opacity=".17"></path><path d="m346.091 354.44 111.589-92.73 211.86 54.36-111.579 89.39z" fill="#e0e0e0"></path><path d="m29.05 318.94 108.71 86.52 211.86-51.02-107.59-90.96z" fill="#e0e0e0"></path><path d="m27.29 317.18 111.35 88.28 211.87-51.02-110.25-92.73z" opacity=".05"></path><path d="m135.99 403.7v293.95l211.87 54.35 2.86-291.73z" fill="#e0e0e0"></path><path d="m559.73 696.54-211.87 55.46v-291.73l211.87-56.57z" fill="#e0e0e0"></path><path d="m559.73 696.54-211.87 55.46v-291.73l211.87-56.57z" opacity=".07"></path><path d="m475.421 598.92v96.51l84.309-23.3v-96.5z" fill="#2479c9" opacity=".8"></path><path d="m133.22 556.22 118.69 29.95 95.4-77.65v-47.7l-211.87-53.24z" opacity=".1"></path><path d="m561.39 556.22-118.69 29.95-95.39-77.65v-47.7l211.861-53.24z" opacity=".1"></path><path d="m259.23 399.1 8.21-1.64s-6.9 7.72-8.21 8.21c-.123 1.641-.123 3.289 0 4.93-15.771 67.69-73.931 37.79-73.931 37.79 21.19.49 23-8.21 23-8.21-12.319-1.81-14.789-9.859-14.789-9.859 2.288 1.205 5.116.499 6.569-1.641-13.31-3.45-11.5-16.43-11.5-16.43 2.3 2 5.91 2.79 8.05 3.12-1.479-1.81-14-16.761-6.409-24.479 0 0 9.199 16.43 33.35 17.909l1.64-.33c-.279-1.182-.391-2.397-.33-3.61 0-9.526 7.724-17.25 17.25-17.25 11.5 0 14 6.57 14 6.57l8.21-4.93c-.18-.01-1 8.21-5.11 9.85z" fill="#00aced"></path><path d="m135.99 403.7-108.7 89.85 211.86 53.24 108.71-86.52z" fill="#e0e0e0"></path><path d="m424.82 396.91 4.061-5.65s.18 8.6-.341 9.65c.854 1.068 1.787 2.07 2.79 3 28.771 50.08-23.529 64.859-23.529 64.859 13.159-11.71 9.33-18 9.33-18-8.561 5.851-14.561 2.351-14.561 2.351 2.073-.565 3.391-2.598 3.061-4.72-10 5.439-16.301-3.471-16.301-3.471 2.521-.1 5.181-1.649 6.66-2.659-1.92-.261-18-2.271-17.77-11.25 0 0 14.899 4.77 30.42-8l.81-1.13c-.84-.559-1.598-1.231-2.25-2-5.398-5.787-5.084-14.855.703-20.254.003-.002.005-.004.007-.007 7-6.521 12.21-3.92 12.21-3.92l2.2-7.649c-.09.07 4.061 5.52 2.5 8.85z" fill="#2479c9"></path><path d="m559.73 403.7 109.81 89.85-210.76 53.24-110.92-86.52z" fill="#e0e0e0"></path><path d="m559.73 403.7 109.81 89.85-210.76 53.24-110.92-86.52z" opacity=".07"></path><g fill="#00aced"><path d="m417.091 122.35 7.51-3.61s-4.74 9.15-5.89 9.95c.287 1.612.695 3.199 1.22 4.75 1.53 69.12-61.9 54.68-61.9 54.68 20.54-4.76 20.13-13.6 20.13-13.6-12.319 1.3-16.68-5.84-16.68-5.84 2.51.624 5.081-.768 5.93-3.21-13.68 0-15.14-13-15.14-13 2.7 1.33 6.39 1.23 8.53 1-1.87-1.38-17.601-12.7-12.221-22 0 0 12.931 13.56 36.561 9l1.5-.72c-.562-1.071-.969-2.215-1.21-3.4-2.357-9.18 3.174-18.532 12.354-20.888.002-.001.004-.001.006-.002 11.08-2.84 15.08 2.88 15.08 2.88l6.7-6.78c-.171.07 1.069 8.19-2.48 10.79z"></path><path d="m73.57 175 8.17-1.63s-6.86 7.68-8.17 8.17c-.122 1.631-.122 3.269 0 4.9-15.69 67.33-73.54 37.59-73.54 37.59 21.08.49 22.88-8.17 22.88-8.17-12.26-1.8-14.71-9.81-14.71-9.81 2.273 1.229 5.108.522 6.54-1.63-13.27-3.42-11.47-16.3-11.47-16.3 2.29 2 5.88 2.78 8 3.11-1.47-1.8-13.89-16.67-6.37-24.35 0 0 9.149 16.34 33.18 17.81l1.63-.33c-.279-1.178-.391-2.39-.33-3.6.006-9.477 7.693-17.155 17.17-17.15h.021c11.44 0 13.89 6.54 13.89 6.54l8.17-4.9c-.191-.01-1.001 8.16-5.061 9.75z"></path><path d="m799.81 29.71 13.33-2.67s-11.2 12.53-13.33 13.33c-.199 2.663-.199 5.337 0 8-25.6 109.85-120 61.32-120 61.32 34.39.8 37.33-13.33 37.33-13.33-20-2.93-24-16-24-16 3.715 1.956 8.306.806 10.66-2.67-21.601-5.6-18.66-26.66-18.66-26.66 3.729 3.2 9.6 4.53 13.06 5.07-2.399-2.93-22.66-27.2-10.399-39.73 0 0 14.93 26.66 54.12 29.06l2.67-.53c-.453-1.922-.632-3.898-.53-5.87 0-15.464 12.536-28 28-28 18.66 0 22.66 10.66 22.66 10.66l13.33-8c-.241.02-1.571 13.31-8.241 16.02z"></path><path d="m581.95 7.73 5.521-1.1s-4.641 5.19-5.521 5.52c-.082 1.102-.082 2.208 0 3.31-10.6 45.5-49.689 25.4-49.689 25.4 14.25.33 15.46-5.52 15.46-5.52-8.28-1.21-9.94-6.63-9.94-6.63 1.538.815 3.443.341 4.42-1.1-8.939-2.32-7.729-11-7.729-11 1.594 1.152 3.456 1.875 5.41 2.1-1-1.21-9.391-11.26-4.311-16.45 0 0 6.181 11 22.42 12l1.101-.22c-.188-.795-.262-1.614-.221-2.43-.012-6.401 5.168-11.599 11.569-11.61h.03c7.729 0 9.39 4.42 9.39 4.42l5.521-3.31c-.121-.01-.67 5.52-3.431 6.62z"></path></g><path d="m331.28 228.58 5.521-1.1s-4.641 5.19-5.521 5.52c-.082 1.102-.082 2.208 0 3.31-10.6 45.5-49.69 25.4-49.69 25.4 14.25.33 15.46-5.52 15.46-5.52-8.279-1.21-9.939-6.63-9.939-6.63 1.538.815 3.443.341 4.42-1.1-8.94-2.32-7.73-11-7.73-11 1.594 1.152 3.457 1.875 5.41 2.1-1-1.21-9.39-11.26-4.31-16.45 0 0 6.18 11 22.42 12l1.101-.22c-.188-.796-.262-1.614-.221-2.43 0-6.401 5.189-11.59 11.59-11.59 7.73 0 9.391 4.42 9.391 4.42l5.52-3.31c-.132.02-.662 5.5-3.422 6.6z" fill="#535461" opacity=".3"></path><path d="m546.57 125.89 5.521-1.1s-4.59 5.21-5.521 5.51c-.082 1.102-.082 2.208 0 3.31-10.6 45.5-49.689 25.4-49.689 25.4 14.25.33 15.46-5.52 15.46-5.52-8.28-1.21-9.94-6.63-9.94-6.63 1.538.815 3.443.341 4.42-1.1-8.939-2.32-7.729-11-7.729-11 1.594 1.152 3.456 1.875 5.41 2.1-1-1.21-9.391-11.26-4.311-16.45 0 0 6.18 11 22.42 12l1.1-.22c-.188-.795-.262-1.614-.22-2.43 0-6.401 5.189-11.59 11.59-11.59 7.73 0 9.391 4.42 9.391 4.42l5.52-3.31c-.062-.02-.622 5.5-3.422 6.61z" fill="#00aced" opacity=".3"></path><path d="m442.37 310.76 11.48-2.3s-9.65 10.8-11.48 11.48c-.171 2.293-.171 4.597 0 6.89-22.05 94.63-103.359 52.83-103.359 52.83 29.63.689 32.16-11.48 32.16-11.48-17.23-2.53-20.67-13.78-20.67-13.78 3.201 1.688 7.16.697 9.189-2.3-18.6-4.82-16.08-23-16.08-23 3.22 2.76 8.271 3.9 11.25 4.36-2.07-2.53-19.52-23.43-9-34.22 0 0 12.86 23 46.63 25l2.3-.46c-.391-1.653-.545-3.354-.46-5.05-.005-13.315 10.785-24.114 24.101-24.12h.02c16.08 0 19.521 9.19 19.521 9.19l11.52-6.8c-.232 0-1.382 11.47-7.122 13.76z" fill="#5cc6f9"></path><path d="m361.091 26.5 5.479-1.1s-4.64 5.19-5.52 5.52c-.083 1.102-.083 2.208 0 3.31-10.601 45.5-49.69 25.4-49.69 25.4 14.25.33 15.46-5.52 15.46-5.52-8.28-1.21-9.939-6.63-9.939-6.63 1.538.815 3.443.341 4.42-1.1-8.94-2.32-7.73-11-7.73-11 1.594 1.152 3.457 1.875 5.41 2.1-1-1.21-9.39-11.26-4.31-16.45 0 0 6.18 11 22.42 12l1.1-.22c-.188-.795-.262-1.614-.22-2.43-.012-6.401 5.169-11.599 11.569-11.61h.03c7.73 0 9.391 4.42 9.391 4.42l5.52-3.31c-.071 0-.621 5.52-3.39 6.62z" fill="#2479c9"></path><path d="m192.14 149.08 5.52-1.1s-4.64 5.19-5.52 5.52c-.083 1.102-.083 2.208 0 3.31-10.601 45.5-49.69 25.4-49.69 25.4 14.25.33 15.46-5.52 15.46-5.52-8.28-1.21-9.939-6.63-9.939-6.63 1.538.815 3.443.341 4.42-1.1-8.94-2.32-7.73-11-7.73-11 1.594 1.152 3.457 1.875 5.41 2.1-1-1.21-9.39-11.26-4.31-16.45 0 0 6.18 11 22.42 12l1.1-.22c-.188-.796-.262-1.614-.22-2.43 0-6.401 5.188-11.59 11.59-11.59 7.729 0 9.39 4.42 9.39 4.42l5.521-3.31c-.112-.03-.662 5.52-3.422 6.6z" fill="#2479c9"></path><path d="m145.76 69.57 5.52-1.1s-4.64 5.19-5.52 5.521c-.083 1.102-.083 2.208 0 3.31-10.601 45.5-49.69 25.4-49.69 25.4 14.25.33 15.46-5.52 15.46-5.52-8.28-1.21-9.94-6.63-9.94-6.63 1.538.815 3.444.341 4.421-1.1-8.94-2.32-7.73-11-7.73-11 1.594 1.151 3.457 1.875 5.41 2.1-1-1.21-9.391-11.26-4.311-16.45 0 0 6.181 11 22.42 12l1.101-.22c-.188-.795-.262-1.614-.22-2.43 0-6.401 5.188-11.59 11.59-11.59 7.729 0 9.39 4.42 9.39 4.42l5.521-3.311c-.112-.03-.612 5.5-3.422 6.6z" fill="#535461" opacity=".3"></path><path d="m340.11 406.37 5.521-1.101s-4.641 5.19-5.521 5.521c-.082 1.102-.082 2.208 0 3.31-10.6 45.5-49.69 25.4-49.69 25.4 14.251.33 15.461-5.52 15.461-5.52-8.28-1.211-9.94-6.631-9.94-6.631 1.538.815 3.443.342 4.42-1.1-8.94-2.32-7.73-11-7.73-11 1.594 1.152 3.457 1.875 5.41 2.1-1-1.209-9.39-11.26-4.31-16.449 0 0 6.18 11 22.42 12l1.101-.221c-.188-.795-.262-1.613-.221-2.43 0-6.4 5.189-11.59 11.59-11.59 7.73 0 9.391 4.42 9.391 4.42l5.52-3.311c-.102-.018-.662 5.502-3.422 6.602z" fill="#535461"></path><path d="m662.341 166.7 11.229-2.25s-9.46 10.59-11.26 11.26c-.168 2.25-.168 4.51 0 6.76-21.63 92.811-101.37 51.811-101.37 51.811 29.09.719 31.57-11.281 31.57-11.281-16.9-2.48-20.271-13.52-20.271-13.52 3.138 1.631 6.999.666 9-2.25-18.25-4.73-15.77-22.53-15.77-22.53 3.149 2.7 8.109 3.83 11 4.28-2-2.48-19.15-23-8.79-33.57 0 0 12.62 22.53 45.729 24.55l2.25-.45c-.387-1.637-.538-3.32-.45-5 0-13.062 10.589-23.65 23.65-23.65 15.771 0 19.15 9 19.15 9l11.26-6.76c-.168.08-1.298 11.35-6.927 13.6z" fill="#535461"></path><path d="m215.11 257.25 11.26-2.25s-9.46 10.59-11.26 11.26c-.168 2.25-.168 4.51 0 6.76-21.63 92.81-101.37 51.81-101.37 51.81 29.06.68 31.54-11.26 31.54-11.26-16.9-2.48-20.27-13.52-20.27-13.52 3.137 1.631 6.998.666 9-2.25-18.25-4.73-15.771-22.53-15.771-22.53 3.15 2.7 8.11 3.83 11 4.28-2-2.48-19.15-23-8.79-33.57 0 0 12.62 22.53 45.73 24.55l2.25-.45c-.388-1.637-.539-3.32-.45-5 0-13.062 10.588-23.65 23.649-23.65 15.771 0 19.15 9 19.15 9l11.26-6.76c-.168.06-1.298 11.33-6.928 13.58z" fill="#535461"></path></svg> 